G04 #@! TF.FileFunction,Soldermask,Bot*
%FSLAX46Y46*%
G04 Gerber Fmt 4.6, Leading zero omitted, Abs format (unit mm)*
G04 Created by KiCad (PCBNEW 4.0.7) date 05/14/20 07:05:34*
%MOMM*%
%LPD*%
G01*
G04 APERTURE LIST*
%ADD10C,0.100000*%
%ADD11C,1.524000*%
%ADD12R,1.700000X1.700000*%
%ADD13O,1.700000X1.700000*%
%ADD14C,5.600000*%
%ADD15R,1.600000X1.600000*%
%ADD16C,1.600000*%
%ADD17O,1.600000X2.500000*%
%ADD18O,1.200000X1.200000*%
%ADD19O,2.500000X1.600000*%
%ADD20C,1.998980*%
%ADD21R,0.750000X1.200000*%
%ADD22C,1.800000*%
%ADD23R,5.000000X1.800000*%
%ADD24R,5.000000X3.960000*%
%ADD25O,2.300000X1.600000*%
%ADD26O,1.600000X2.300000*%
G04 APERTURE END LIST*
D10*
D11*
X162814000Y-69088000D03*
X160274000Y-69088000D03*
X165354000Y-69088000D03*
D12*
X168000000Y-132000000D03*
D13*
X170540000Y-132000000D03*
X173080000Y-132000000D03*
X175620000Y-132000000D03*
X178160000Y-132000000D03*
X180700000Y-132000000D03*
X183240000Y-132000000D03*
X185780000Y-132000000D03*
X188320000Y-132000000D03*
X190860000Y-132000000D03*
D14*
X211000000Y-44000000D03*
X119000000Y-44000000D03*
X119000000Y-131250000D03*
X211000000Y-131000000D03*
D15*
X199300000Y-82750000D03*
D16*
X199300000Y-84750000D03*
D15*
X206050000Y-57250000D03*
D16*
X206050000Y-55250000D03*
D15*
X178630000Y-96990000D03*
X178630000Y-99290000D03*
X165240000Y-96990000D03*
X165240000Y-99290000D03*
X168370000Y-96990000D03*
X168370000Y-99290000D03*
X175500000Y-96990000D03*
X175500000Y-99290000D03*
X210750000Y-109850000D03*
D16*
X210750000Y-112350000D03*
D15*
X203750000Y-109850000D03*
D16*
X203750000Y-112350000D03*
D17*
X211500000Y-121000000D03*
D18*
X206500000Y-121000000D03*
D19*
X206500000Y-116000000D03*
X206500000Y-118500000D03*
X206500000Y-123500000D03*
X206500000Y-126000000D03*
D18*
X211500000Y-116000000D03*
X211500000Y-126000000D03*
X214000000Y-116000000D03*
X214000000Y-126000000D03*
D17*
X211450000Y-82750000D03*
D18*
X206450000Y-82750000D03*
D19*
X206450000Y-77750000D03*
X206450000Y-80250000D03*
X206450000Y-85250000D03*
X206450000Y-87750000D03*
D18*
X211450000Y-77750000D03*
X211450000Y-87750000D03*
X213950000Y-77750000D03*
X213950000Y-87750000D03*
D12*
X180000000Y-43000000D03*
D13*
X182540000Y-43000000D03*
X185080000Y-43000000D03*
X187620000Y-43000000D03*
X190160000Y-43000000D03*
X192700000Y-43000000D03*
X195240000Y-43000000D03*
X197780000Y-43000000D03*
X200320000Y-43000000D03*
X202860000Y-43000000D03*
D12*
X126000000Y-132000000D03*
D13*
X128540000Y-132000000D03*
X131080000Y-132000000D03*
X133620000Y-132000000D03*
X136160000Y-132000000D03*
X138700000Y-132000000D03*
X141240000Y-132000000D03*
X143780000Y-132000000D03*
X146320000Y-132000000D03*
X148860000Y-132000000D03*
D20*
X188900000Y-104001260D03*
X188900000Y-93841260D03*
X174101260Y-125750000D03*
X163941260Y-125750000D03*
D21*
X180300000Y-73450000D03*
X180300000Y-75350000D03*
X182150000Y-73450000D03*
X182150000Y-75350000D03*
D20*
X192675000Y-116901260D03*
X192675000Y-106741260D03*
X199036425Y-69663575D03*
X191852220Y-76847780D03*
X182400000Y-127751260D03*
X182400000Y-117591260D03*
X145600000Y-93901260D03*
X145600000Y-83741260D03*
X133992000Y-71604000D03*
X128404000Y-71604000D03*
X123492000Y-71604000D03*
X117904000Y-71604000D03*
X133992000Y-85604000D03*
X128404000Y-85604000D03*
X123492000Y-85604000D03*
X117904000Y-85604000D03*
X128258000Y-99896000D03*
X133846000Y-99896000D03*
X123492000Y-99854000D03*
X117904000Y-99854000D03*
D22*
X120857000Y-49920000D03*
X120857000Y-60080000D03*
D23*
X119350000Y-55000000D03*
D24*
X119350000Y-58620000D03*
X119350000Y-51380000D03*
D22*
X120857000Y-52460000D03*
X120857000Y-57540000D03*
X120857000Y-55000000D03*
D15*
X205100000Y-67800000D03*
D16*
X205100000Y-65800000D03*
D15*
X154700000Y-102450000D03*
D16*
X152700000Y-102450000D03*
D15*
X180400000Y-111900000D03*
D16*
X180400000Y-113900000D03*
D15*
X197400000Y-110775000D03*
D16*
X197400000Y-112775000D03*
D15*
X201650000Y-95500000D03*
D16*
X199650000Y-95500000D03*
D25*
X185400000Y-48600000D03*
X185400000Y-51140000D03*
X185400000Y-53680000D03*
X185400000Y-56220000D03*
X185400000Y-58760000D03*
X177780000Y-58760000D03*
X177780000Y-56220000D03*
X177780000Y-53680000D03*
X177780000Y-51140000D03*
X177780000Y-48600000D03*
D26*
X136400000Y-59000000D03*
X133860000Y-59000000D03*
X131320000Y-59000000D03*
X128780000Y-59000000D03*
X126240000Y-59000000D03*
X126240000Y-51380000D03*
X128780000Y-51380000D03*
X131320000Y-51380000D03*
X133860000Y-51380000D03*
X136400000Y-51380000D03*
D25*
X162300000Y-48600000D03*
X162300000Y-51140000D03*
X162300000Y-53680000D03*
X162300000Y-56220000D03*
X162300000Y-58760000D03*
X154680000Y-58760000D03*
X154680000Y-56220000D03*
X154680000Y-53680000D03*
X154680000Y-51140000D03*
X154680000Y-48600000D03*
D26*
X126050000Y-115050000D03*
X128590000Y-115050000D03*
X131130000Y-115050000D03*
X133670000Y-115050000D03*
X136210000Y-115050000D03*
X136210000Y-122670000D03*
X133670000Y-122670000D03*
X131130000Y-122670000D03*
X128590000Y-122670000D03*
X126050000Y-122670000D03*
D15*
X160550000Y-119050000D03*
D16*
X158550000Y-119050000D03*
D15*
X184600000Y-97300000D03*
D16*
X184600000Y-99300000D03*
D15*
X192600000Y-48650000D03*
D16*
X192600000Y-46650000D03*
D15*
X198300000Y-48650000D03*
D16*
X198300000Y-46650000D03*
D20*
X188900620Y-70850000D03*
X173660620Y-70850000D03*
D15*
X169672000Y-63500000D03*
D16*
X169672000Y-61500000D03*
D15*
X168910000Y-77978000D03*
D16*
X166910000Y-77978000D03*
D15*
X146650000Y-76850000D03*
D16*
X144650000Y-76850000D03*
X154940000Y-116586000D03*
X154940000Y-111586000D03*
D12*
X126000000Y-43000000D03*
D13*
X128540000Y-43000000D03*
X131080000Y-43000000D03*
X133620000Y-43000000D03*
X136160000Y-43000000D03*
X138700000Y-43000000D03*
X141240000Y-43000000D03*
X143780000Y-43000000D03*
X146320000Y-43000000D03*
X148860000Y-43000000D03*
D16*
X141986000Y-125984000D03*
X146986000Y-125984000D03*
D20*
X142318740Y-118872000D03*
X152478740Y-118872000D03*
D16*
X154940000Y-125984000D03*
X149940000Y-125984000D03*
M02*
