G04 #@! TF.FileFunction,Soldermask,Top*
%FSLAX46Y46*%
G04 Gerber Fmt 4.6, Leading zero omitted, Abs format (unit mm)*
G04 Created by KiCad (PCBNEW 4.0.7) date 05/14/20 07:05:34*
%MOMM*%
%LPD*%
G01*
G04 APERTURE LIST*
%ADD10C,0.100000*%
%ADD11C,1.524000*%
%ADD12R,1.700000X1.700000*%
%ADD13O,1.700000X1.700000*%
%ADD14R,1.100000X2.150000*%
%ADD15C,5.600000*%
%ADD16R,1.700000X1.400000*%
%ADD17R,1.600000X1.600000*%
%ADD18C,1.600000*%
%ADD19R,1.400000X1.700000*%
%ADD20R,1.550000X0.600000*%
%ADD21R,1.500000X0.600000*%
%ADD22O,1.600000X2.500000*%
%ADD23O,1.200000X1.200000*%
%ADD24O,2.500000X1.600000*%
%ADD25R,0.800000X0.900000*%
%ADD26C,1.998980*%
%ADD27R,1.500000X0.450000*%
%ADD28R,0.900000X1.200000*%
%ADD29R,0.750000X1.200000*%
%ADD30R,1.200000X0.750000*%
%ADD31R,1.200000X0.900000*%
%ADD32R,0.450000X1.450000*%
%ADD33R,0.400000X0.650000*%
%ADD34R,0.850000X1.000000*%
%ADD35C,1.800000*%
%ADD36R,5.000000X3.960000*%
%ADD37O,2.300000X1.600000*%
%ADD38O,1.600000X2.300000*%
%ADD39R,1.300000X1.700000*%
%ADD40R,1.700000X1.300000*%
G04 APERTURE END LIST*
D10*
D11*
X162814000Y-69088000D03*
X160274000Y-69088000D03*
X165354000Y-69088000D03*
D12*
X168000000Y-132000000D03*
D13*
X170540000Y-132000000D03*
X173080000Y-132000000D03*
X175620000Y-132000000D03*
X178160000Y-132000000D03*
X180700000Y-132000000D03*
X183240000Y-132000000D03*
X185780000Y-132000000D03*
X188320000Y-132000000D03*
X190860000Y-132000000D03*
D14*
X176630000Y-95665000D03*
X176630000Y-98615000D03*
D15*
X211000000Y-44000000D03*
X119000000Y-44000000D03*
X119000000Y-131250000D03*
X211000000Y-131000000D03*
D16*
X146300000Y-48000000D03*
X146300000Y-45600000D03*
D17*
X202100000Y-68150000D03*
X202100000Y-70450000D03*
X201500000Y-79500000D03*
X201500000Y-77200000D03*
X199300000Y-82750000D03*
D18*
X199300000Y-84750000D03*
D17*
X212200000Y-71050000D03*
X212200000Y-73350000D03*
X210050000Y-62650000D03*
X210050000Y-60350000D03*
X206050000Y-57250000D03*
D18*
X206050000Y-55250000D03*
D16*
X197000000Y-79550000D03*
X197000000Y-77150000D03*
X196600000Y-71000000D03*
X196600000Y-73400000D03*
D19*
X199700000Y-73350000D03*
X202100000Y-73350000D03*
X204700000Y-73350000D03*
X207100000Y-73350000D03*
D16*
X209500000Y-73350000D03*
X209500000Y-70950000D03*
X211500000Y-68000000D03*
X211500000Y-65600000D03*
X202400000Y-62700000D03*
X202400000Y-60300000D03*
D19*
X197500000Y-60300000D03*
X199900000Y-60300000D03*
D16*
X208200000Y-65200000D03*
X208200000Y-67600000D03*
D20*
X157480000Y-72605000D03*
X157480000Y-71335000D03*
X157480000Y-70065000D03*
X157480000Y-68795000D03*
X152080000Y-68795000D03*
X152080000Y-70065000D03*
X152080000Y-71335000D03*
X152080000Y-72605000D03*
D16*
X176630000Y-104870000D03*
X176630000Y-102470000D03*
D19*
X157200000Y-108500000D03*
X159600000Y-108500000D03*
D20*
X205850000Y-104505000D03*
X205850000Y-103235000D03*
X205850000Y-101965000D03*
X205850000Y-100695000D03*
X200450000Y-100695000D03*
X200450000Y-101965000D03*
X200450000Y-103235000D03*
X200450000Y-104505000D03*
D21*
X178575000Y-66890000D03*
X178575000Y-68160000D03*
X178575000Y-69430000D03*
X178575000Y-70700000D03*
X178575000Y-71970000D03*
X178575000Y-73240000D03*
X178575000Y-74510000D03*
X183975000Y-74510000D03*
X183975000Y-73240000D03*
X183975000Y-71970000D03*
X183975000Y-70700000D03*
X183975000Y-69430000D03*
X183975000Y-68160000D03*
X183975000Y-66890000D03*
D14*
X167240000Y-95665000D03*
X167240000Y-98615000D03*
X170370000Y-95665000D03*
X170370000Y-98615000D03*
X173500000Y-95665000D03*
X173500000Y-98615000D03*
D17*
X210750000Y-109850000D03*
D18*
X210750000Y-112350000D03*
D17*
X203750000Y-109850000D03*
D18*
X203750000Y-112350000D03*
D22*
X211500000Y-121000000D03*
D23*
X206500000Y-121000000D03*
D24*
X206500000Y-116000000D03*
X206500000Y-118500000D03*
X206500000Y-123500000D03*
X206500000Y-126000000D03*
D23*
X211500000Y-116000000D03*
X211500000Y-126000000D03*
X214000000Y-116000000D03*
X214000000Y-126000000D03*
D22*
X211450000Y-82750000D03*
D23*
X206450000Y-82750000D03*
D24*
X206450000Y-77750000D03*
X206450000Y-80250000D03*
X206450000Y-85250000D03*
X206450000Y-87750000D03*
D23*
X211450000Y-77750000D03*
X211450000Y-87750000D03*
X213950000Y-77750000D03*
X213950000Y-87750000D03*
D12*
X180000000Y-43000000D03*
D13*
X182540000Y-43000000D03*
X185080000Y-43000000D03*
X187620000Y-43000000D03*
X190160000Y-43000000D03*
X192700000Y-43000000D03*
X195240000Y-43000000D03*
X197780000Y-43000000D03*
X200320000Y-43000000D03*
X202860000Y-43000000D03*
D25*
X205100000Y-62550000D03*
X207000000Y-62550000D03*
X206050000Y-60550000D03*
D12*
X126000000Y-132000000D03*
D13*
X128540000Y-132000000D03*
X131080000Y-132000000D03*
X133620000Y-132000000D03*
X136160000Y-132000000D03*
X138700000Y-132000000D03*
X141240000Y-132000000D03*
X143780000Y-132000000D03*
X146320000Y-132000000D03*
X148860000Y-132000000D03*
D17*
X179790000Y-106850000D03*
X182090000Y-106850000D03*
D19*
X162300000Y-110100000D03*
X164700000Y-110100000D03*
D17*
X158050000Y-101350000D03*
X160350000Y-101350000D03*
D26*
X188900000Y-104001260D03*
X188900000Y-93841260D03*
D16*
X170370000Y-104870000D03*
X170370000Y-102470000D03*
X167240000Y-104870000D03*
X167240000Y-102470000D03*
X173500000Y-104870000D03*
X173500000Y-102470000D03*
D19*
X165450000Y-107500000D03*
X163050000Y-107500000D03*
X158050000Y-104450000D03*
X160450000Y-104450000D03*
D27*
X184225000Y-91683000D03*
X184225000Y-91033000D03*
X184225000Y-90383000D03*
X184225000Y-89733000D03*
X184225000Y-89083000D03*
X184225000Y-88433000D03*
X184225000Y-87783000D03*
X184225000Y-87133000D03*
X178325000Y-87133000D03*
X178325000Y-87783000D03*
X178325000Y-88433000D03*
X178325000Y-89083000D03*
X178325000Y-89733000D03*
X178325000Y-90383000D03*
X178325000Y-91033000D03*
X178325000Y-91683000D03*
X162730000Y-91683000D03*
X162730000Y-91033000D03*
X162730000Y-90383000D03*
X162730000Y-89733000D03*
X162730000Y-89083000D03*
X162730000Y-88433000D03*
X162730000Y-87783000D03*
X162730000Y-87133000D03*
X156830000Y-87133000D03*
X156830000Y-87783000D03*
X156830000Y-88433000D03*
X156830000Y-89083000D03*
X156830000Y-89733000D03*
X156830000Y-90383000D03*
X156830000Y-91033000D03*
X156830000Y-91683000D03*
D26*
X174101260Y-125750000D03*
X163941260Y-125750000D03*
D28*
X144200000Y-70500000D03*
X144200000Y-68300000D03*
X160114000Y-62654000D03*
X160114000Y-64854000D03*
X155780000Y-81300000D03*
X155780000Y-79100000D03*
X157780000Y-81300000D03*
X157780000Y-79100000D03*
X155780000Y-62700000D03*
X155780000Y-64900000D03*
D29*
X158110000Y-62790000D03*
X158110000Y-64690000D03*
D14*
X150890000Y-62955000D03*
X150890000Y-65905000D03*
D29*
X188775000Y-66250000D03*
X188775000Y-68150000D03*
X173775000Y-66250000D03*
X173775000Y-68150000D03*
D30*
X185800000Y-61000000D03*
X187700000Y-61000000D03*
X176750000Y-61000000D03*
X174850000Y-61000000D03*
D28*
X153780000Y-62700000D03*
X153780000Y-64900000D03*
X153780000Y-81300000D03*
X153780000Y-79100000D03*
X151780000Y-81300000D03*
X151780000Y-79100000D03*
X182275000Y-81300000D03*
X182275000Y-79100000D03*
X180275000Y-81300000D03*
X180275000Y-79100000D03*
X186275000Y-76000000D03*
X186275000Y-73800000D03*
X176275000Y-76000000D03*
X176275000Y-73800000D03*
X190975000Y-71800000D03*
X190975000Y-69600000D03*
X171575000Y-71800000D03*
X171575000Y-69600000D03*
X178275000Y-81300000D03*
X178275000Y-79100000D03*
X184275000Y-81300000D03*
X184275000Y-79100000D03*
X186775000Y-66100000D03*
X186775000Y-68300000D03*
X175775000Y-66100000D03*
X175775000Y-68300000D03*
X169672000Y-71925000D03*
X169672000Y-74125000D03*
D31*
X171200000Y-76100000D03*
X173400000Y-76100000D03*
D28*
X182475000Y-64300000D03*
X182475000Y-62100000D03*
X180075000Y-64300000D03*
X180075000Y-62100000D03*
D26*
X192675000Y-116901260D03*
X192675000Y-106741260D03*
X199036425Y-69663575D03*
X191852220Y-76847780D03*
X182400000Y-127751260D03*
X182400000Y-117591260D03*
D17*
X172550000Y-46900000D03*
X174850000Y-46900000D03*
D25*
X148800000Y-55500000D03*
X150700000Y-55500000D03*
X149750000Y-53500000D03*
D32*
X166275000Y-118950000D03*
X166925000Y-118950000D03*
X167575000Y-118950000D03*
X168225000Y-118950000D03*
X168225000Y-113050000D03*
X167575000Y-113050000D03*
X166925000Y-113050000D03*
X166275000Y-113050000D03*
X173625000Y-118950000D03*
X174275000Y-118950000D03*
X174925000Y-118950000D03*
X175575000Y-118950000D03*
X175575000Y-113050000D03*
X174925000Y-113050000D03*
X174275000Y-113050000D03*
X173625000Y-113050000D03*
D33*
X169620000Y-107660000D03*
X168320000Y-107660000D03*
X168970000Y-109560000D03*
X168970000Y-107660000D03*
X168320000Y-109560000D03*
X169620000Y-109560000D03*
X175540000Y-107600000D03*
X174240000Y-107600000D03*
X174890000Y-109500000D03*
X174890000Y-107600000D03*
X174240000Y-109500000D03*
X175540000Y-109500000D03*
D14*
X145830000Y-65405000D03*
X145830000Y-62455000D03*
X163730000Y-65405000D03*
X163730000Y-62455000D03*
D26*
X145600000Y-93901260D03*
X145600000Y-83741260D03*
D30*
X147000000Y-86850000D03*
X145100000Y-86850000D03*
X153650000Y-85900000D03*
X151750000Y-85900000D03*
D29*
X176650000Y-85825000D03*
X176650000Y-83925000D03*
D28*
X153650000Y-91250000D03*
X153650000Y-89050000D03*
D25*
X149150000Y-90000000D03*
X151050000Y-90000000D03*
X150100000Y-88000000D03*
D17*
X138450000Y-47100000D03*
X138450000Y-49400000D03*
D26*
X133992000Y-71604000D03*
X128404000Y-71604000D03*
X123492000Y-71604000D03*
X117904000Y-71604000D03*
X133992000Y-85604000D03*
X128404000Y-85604000D03*
X123492000Y-85604000D03*
X117904000Y-85604000D03*
X128258000Y-99896000D03*
X133846000Y-99896000D03*
X123492000Y-99854000D03*
X117904000Y-99854000D03*
D25*
X125100000Y-127000000D03*
X127000000Y-127000000D03*
X126050000Y-125000000D03*
D19*
X125200000Y-129150000D03*
X127600000Y-129150000D03*
D17*
X130100000Y-63750000D03*
X132400000Y-63750000D03*
X138450000Y-63700000D03*
X136150000Y-63700000D03*
X127150000Y-63700000D03*
X124850000Y-63700000D03*
X119600000Y-63750000D03*
X121900000Y-63750000D03*
X130100000Y-95250000D03*
X132400000Y-95250000D03*
X126200000Y-92950000D03*
X126200000Y-95250000D03*
X138650000Y-104000000D03*
X136350000Y-104000000D03*
X119600000Y-95250000D03*
X121900000Y-95250000D03*
X132150000Y-108250000D03*
X129850000Y-108250000D03*
X125476000Y-104782000D03*
X125476000Y-102482000D03*
X119600000Y-110900000D03*
X121900000Y-110900000D03*
X121900000Y-113900000D03*
X119600000Y-113900000D03*
D34*
X122825000Y-67500000D03*
X118675000Y-67500000D03*
X122825000Y-91500000D03*
X118675000Y-91500000D03*
X133325000Y-67500000D03*
X129175000Y-67500000D03*
X133325000Y-91500000D03*
X129175000Y-91500000D03*
X128925000Y-104000000D03*
X133075000Y-104000000D03*
X122825000Y-107300000D03*
X118675000Y-107300000D03*
D35*
X120857000Y-49920000D03*
X120857000Y-60080000D03*
D36*
X119350000Y-58620000D03*
X119350000Y-51380000D03*
D35*
X120857000Y-52460000D03*
X120857000Y-57540000D03*
X120857000Y-55000000D03*
D17*
X205100000Y-67800000D03*
D18*
X205100000Y-65800000D03*
D17*
X154700000Y-102450000D03*
D18*
X152700000Y-102450000D03*
D17*
X180400000Y-111900000D03*
D18*
X180400000Y-113900000D03*
D17*
X209450000Y-102200000D03*
X209450000Y-104500000D03*
X196350000Y-100800000D03*
X196350000Y-103100000D03*
X197400000Y-110775000D03*
D18*
X197400000Y-112775000D03*
D17*
X201650000Y-95500000D03*
D18*
X199650000Y-95500000D03*
D17*
X193850000Y-113200000D03*
X193850000Y-110900000D03*
X209500000Y-93750000D03*
X207200000Y-93750000D03*
D37*
X185400000Y-48600000D03*
X185400000Y-51140000D03*
X185400000Y-53680000D03*
X185400000Y-56220000D03*
X185400000Y-58760000D03*
X177780000Y-58760000D03*
X177780000Y-56220000D03*
X177780000Y-53680000D03*
X177780000Y-51140000D03*
X177780000Y-48600000D03*
D19*
X201700000Y-91250000D03*
X199300000Y-91250000D03*
X195300000Y-97500000D03*
X192900000Y-97500000D03*
D38*
X136400000Y-59000000D03*
X133860000Y-59000000D03*
X131320000Y-59000000D03*
X128780000Y-59000000D03*
X126240000Y-59000000D03*
X126240000Y-51380000D03*
X128780000Y-51380000D03*
X131320000Y-51380000D03*
X133860000Y-51380000D03*
X136400000Y-51380000D03*
D37*
X162300000Y-48600000D03*
X162300000Y-51140000D03*
X162300000Y-53680000D03*
X162300000Y-56220000D03*
X162300000Y-58760000D03*
X154680000Y-58760000D03*
X154680000Y-56220000D03*
X154680000Y-53680000D03*
X154680000Y-51140000D03*
X154680000Y-48600000D03*
D38*
X126050000Y-115050000D03*
X128590000Y-115050000D03*
X131130000Y-115050000D03*
X133670000Y-115050000D03*
X136210000Y-115050000D03*
X136210000Y-122670000D03*
X133670000Y-122670000D03*
X131130000Y-122670000D03*
X128590000Y-122670000D03*
X126050000Y-122670000D03*
D17*
X149750000Y-47850000D03*
X149750000Y-50150000D03*
D39*
X183350000Y-48600000D03*
X179850000Y-48600000D03*
X160250000Y-48600000D03*
X156750000Y-48600000D03*
D30*
X148750000Y-57650000D03*
X150650000Y-57650000D03*
D25*
X193750000Y-124510000D03*
X195650000Y-124510000D03*
X194700000Y-122510000D03*
X194690000Y-120810000D03*
X196590000Y-120810000D03*
X195640000Y-118810000D03*
D17*
X193610000Y-126740000D03*
X195910000Y-126740000D03*
X185850000Y-119400000D03*
X188150000Y-119400000D03*
X201275000Y-119175000D03*
X198975000Y-119175000D03*
D16*
X199020000Y-124510000D03*
X199020000Y-126910000D03*
D19*
X189700000Y-122510000D03*
X187300000Y-122510000D03*
X198950000Y-116450000D03*
X201350000Y-116450000D03*
X190120000Y-128070000D03*
X187720000Y-128070000D03*
X201875000Y-106741260D03*
X204275000Y-106741260D03*
D16*
X211900000Y-104550000D03*
X211900000Y-102150000D03*
X194000000Y-103100000D03*
X194000000Y-100700000D03*
D19*
X207150000Y-96700000D03*
X209550000Y-96700000D03*
D17*
X167132000Y-126880000D03*
X167132000Y-124580000D03*
X159632000Y-112776000D03*
X161932000Y-112776000D03*
D19*
X164408000Y-122174000D03*
X166808000Y-122174000D03*
D16*
X170000000Y-126900000D03*
X170000000Y-124500000D03*
D19*
X172900000Y-122500000D03*
X175300000Y-122500000D03*
D17*
X160550000Y-119050000D03*
D18*
X158550000Y-119050000D03*
D17*
X117856000Y-76828000D03*
X117856000Y-79128000D03*
X128400000Y-76650000D03*
X128400000Y-78950000D03*
X122700000Y-123400000D03*
X120400000Y-123400000D03*
D40*
X140400000Y-56950000D03*
X140400000Y-53450000D03*
X122000000Y-117150000D03*
X122000000Y-120650000D03*
D17*
X184600000Y-97300000D03*
D18*
X184600000Y-99300000D03*
D17*
X152750000Y-95200000D03*
X155050000Y-95200000D03*
X181800000Y-99450000D03*
X181800000Y-97150000D03*
X192600000Y-48650000D03*
D18*
X192600000Y-46650000D03*
D17*
X198300000Y-48650000D03*
D18*
X198300000Y-46650000D03*
D26*
X188900620Y-70850000D03*
X173660620Y-70850000D03*
D17*
X169672000Y-63500000D03*
D18*
X169672000Y-61500000D03*
D17*
X168910000Y-77978000D03*
D18*
X166910000Y-77978000D03*
D30*
X123150000Y-127250000D03*
X121250000Y-127250000D03*
D17*
X144450000Y-80100000D03*
X146750000Y-80100000D03*
X146650000Y-76850000D03*
D18*
X144650000Y-76850000D03*
D19*
X144300000Y-89800000D03*
X146700000Y-89800000D03*
D18*
X154940000Y-116586000D03*
X154940000Y-111586000D03*
D12*
X126000000Y-43000000D03*
D13*
X128540000Y-43000000D03*
X131080000Y-43000000D03*
X133620000Y-43000000D03*
X136160000Y-43000000D03*
X138700000Y-43000000D03*
X141240000Y-43000000D03*
X143780000Y-43000000D03*
X146320000Y-43000000D03*
X148860000Y-43000000D03*
D18*
X141986000Y-125984000D03*
X146986000Y-125984000D03*
D26*
X142318740Y-118872000D03*
X152478740Y-118872000D03*
D18*
X154940000Y-125984000D03*
X149940000Y-125984000D03*
D16*
X164338000Y-71952000D03*
X164338000Y-74352000D03*
D17*
X161290000Y-74302000D03*
X161290000Y-72002000D03*
X147066000Y-72016000D03*
X147066000Y-69716000D03*
D16*
X149446000Y-69666000D03*
X149446000Y-72066000D03*
M02*
