M48
;DRILL file {KiCad 4.0.7} date 06/06/20 12:49:22
;FORMAT={-:-/ absolute / inch / decimal}
FMAT,2
INCH,TZ
T1C0.016
T2C0.031
T3C0.035
T4C0.039
T5C0.039
T6C0.043
T7C0.047
T8C0.126
%
G90
G05
M72
T1
X4.5787Y-3.6358
X4.5787Y-3.7913
X4.58Y-4.23
X4.58Y-4.4
X4.58Y-4.55
X4.58Y-4.69
X4.58Y-4.86
X4.58Y-5.01
X4.5866Y-2.5913
X4.5906Y-3.2476
X4.6378Y-2.9264
X4.6575Y-3.4724
X4.67Y-4.86
X4.69Y-4.29
X4.71Y-4.58
X4.7106Y-4.6791
X4.7138Y-3.2028
X4.7185Y-3.6732
X4.7421Y-3.3697
X4.7563Y-2.5913
X4.7717Y-2.735
X4.7913Y-3.8484
X4.7984Y-2.887
X4.8272Y-3.2528
X4.8583Y-3.6732
X4.86Y-4.42
X4.86Y-4.55
X4.9047Y-2.989
X4.9193Y-3.1807
X4.94Y-4.25
X4.9449Y-1.8465
X4.9563Y-3.8996
X4.9642Y-2.7209
X4.9642Y-2.8831
X5.0028Y-3.5028
X5.0031Y-2.5917
X5.0118Y-4.6177
X5.0177Y-2.2343
X5.0197Y-2.1083
X5.02Y-4.02
X5.03Y-4.33
X5.0358Y-3.2528
X5.0642Y-2.4476
X5.0874Y-4.4232
X5.126Y-4.75
X5.1409Y-3.9709
X5.1524Y-2.4126
X5.1535Y-5.0039
X5.1547Y-3.5579
X5.1598Y-3.6606
X5.1791Y-3.8441
X5.19Y-4.17
X5.1949Y-2.1228
X5.2205Y-1.8465
X5.2228Y-4.6728
X5.2575Y-4.4228
X5.2583Y-2.9343
X5.265Y-3.1736
X5.2732Y-4.9807
X5.2815Y-2.1795
X5.3114Y-4.5913
X5.3161Y-4.6441
X5.3366Y-1.8465
X5.3587Y-3.5717
X5.3591Y-3.787
X5.36Y-4.33
X5.37Y-3.97
X5.37Y-4.18
X5.378Y-3.4008
X5.3791Y-4.6894
X5.3807Y-2.7421
X5.3843Y-3.0449
X5.3843Y-3.222
X5.385Y-2.872
X5.4138Y-2.1795
X5.4173Y-4.9469
X5.45Y-4.24
X5.4508Y-2.3902
X5.4512Y-2.6441
X5.4756Y-5.0921
X5.487Y-4.4839
X5.4878Y-4.6815
X5.5106Y-3.5697
X5.5177Y-2.7398
X5.5283Y-2.8728
X5.5283Y-3.0453
X5.5307Y-3.2252
X5.5307Y-3.3756
X5.5307Y-3.9705
X5.5311Y-3.787
X5.5453Y-4.3417
X5.5827Y-1.8543
X5.5827Y-1.9642
X5.5925Y-4.8929
X5.5957Y-2.2331
X5.6083Y-5.1272
X5.6098Y-4.6201
X5.685Y-4.1327
X5.6854Y-4.272
X5.6854Y-4.4185
X5.7031Y-3.1039
X5.7031Y-3.2984
X5.7039Y-2.9008
X5.7039Y-3.4642
X5.7047Y-3.6177
X5.7055Y-3.7606
X5.7268Y-4.7366
X5.7378Y-3.8496
X5.7898Y-2.6906
X5.8035Y-4.8697
X5.8055Y-4.272
X5.8055Y-4.4177
X5.8287Y-2.5224
X5.8319Y-4.5449
X5.8346Y-3.6783
X5.8492Y-3.0283
X5.8492Y-3.1531
X5.8492Y-3.2906
X5.8492Y-3.3917
X5.8508Y-2.3484
X5.8689Y-2.2256
X5.8878Y-1.8886
X5.8927Y-3.3327
X5.9024Y-2.6201
X5.9154Y-4.6606
X5.9256Y-3.7614
X5.9657Y-4.4169
X5.9673Y-4.2728
X6.0059Y-5.1965
X6.0138Y-4.5728
X6.0205Y-4.8697
X6.0232Y-2.6831
X6.037Y-3.9335
X6.0394Y-3.5384
X6.0561Y-3.686
X6.0567Y-3.7795
X6.1413Y-4.9524
X6.1543Y-4.7264
X6.1559Y-1.9795
X6.1638Y-2.2
X6.1638Y-4.5618
X6.1673Y-2.9673
X6.1709Y-3.2996
X6.1709Y-4.1744
X6.1791Y-4.8768
X6.1799Y-2.5201
X6.1929Y-5.1854
X6.2339Y-4.1961
X6.2413Y-3.3205
X6.2654Y-2.1445
X6.2654Y-2.3657
X6.2707Y-3.6703
X6.2707Y-3.7982
X6.2787Y-3.8488
X6.2807Y-4.5413
X6.3091Y-2.0705
X6.3114Y-3.6272
X6.315Y-2.6366
X6.322Y-5.0543
X6.3323Y-4.1205
X6.34Y-1.79
X6.3406Y-4.2114
X6.3555Y-3.3386
X6.3768Y-3.5669
X6.3768Y-3.6634
X6.3768Y-3.8957
X6.4051Y-4.6795
X6.4272Y-2.8425
X6.4341Y-4.0266
X6.4488Y-1.8425
X6.4583Y-5.1961
X6.4681Y-4.3004
X6.4681Y-4.8673
X6.4776Y-4.4272
X6.4872Y-3.6939
X6.4872Y-3.9459
X6.489Y-2.9409
X6.4969Y-3.0831
X6.5142Y-4.9433
X6.5161Y-2.7449
X6.5161Y-4.7339
X6.528Y-3.324
X6.572Y-4.2472
X6.5756Y-2.3839
X6.598Y-3.2335
X6.6012Y-2.1638
X6.6142Y-4.9606
X6.6171Y-4.0266
X6.6437Y-4.4571
X6.6437Y-4.6378
X6.6472Y-1.8161
X6.6508Y-4.8406
X6.6673Y-3.877
X6.6762Y-3.6467
X6.6783Y-2.1795
X6.6787Y-1.9992
X6.6827Y-5.0744
X6.6921Y-3.4791
X6.6965Y-3.2657
X6.7008Y-3.5758
X6.7087Y-3.122
X6.7402Y-4.686
X6.7681Y-4.4894
X6.7681Y-4.5878
X6.7693Y-4.237
X6.787Y-1.6697
X6.7913Y-3.4937
X6.7923Y-3.8159
X6.7933Y-4.686
X6.8276Y-2.1657
X6.8307Y-3.7057
X6.8307Y-3.8041
X6.8366Y-3.6398
X6.8413Y-4.8406
X6.8622Y-4.8984
X6.8691Y-5.0744
X6.8693Y-2.5244
X6.874Y-3.3823
X6.8819Y-3.0484
X6.8819Y-3.1449
X6.8858Y-3.3098
X6.889Y-3.5417
X6.8917Y-4.4571
X6.8917Y-4.6378
X6.9055Y-2.3185
X6.9065Y-3.7726
X6.9071Y-1.6925
X6.9213Y-4.0228
X6.9346Y-3.2634
X6.9386Y-3.4776
X6.9606Y-4.7193
X6.9656Y-3.7726
X6.9685Y-2.7874
X6.9929Y-1.8642
X7.0079Y-4.8846
X7.0187Y-3.2411
X7.0217Y-3.7157
X7.0244Y-2.7008
X7.0354Y-3.5758
X7.0713Y-4.3496
X7.0787Y-3.7904
X7.0969Y-4.9933
X7.1035Y-4.0228
X7.1079Y-3.1425
X7.1287Y-2.0287
X7.1366Y-2.8878
X7.139Y-2.4988
X7.1488Y-3.8421
X7.1504Y-2.9803
X7.1504Y-3.0815
X7.1559Y-3.6224
X7.2181Y-4.8539
X7.2378Y-4.3094
X7.239Y-4.1437
X7.2413Y-3.9524
X7.2539Y-3.2461
X7.2579Y-3.7256
X7.289Y-4.6008
X7.2913Y-2.7835
X7.3465Y-2.9803
X7.3504Y-2.4988
X7.3543Y-1.9315
X7.3567Y-3.8236
X7.3736Y-3.3713
X7.374Y-4.678
X7.3823Y-3.2567
X7.4039Y-3.1177
X7.4551Y-3.4472
X7.4965Y-2.1504
X7.5169Y-3.2311
X7.5193Y-2.5984
X7.5626Y-3.911
X7.5626Y-4.0661
X7.5965Y-3.4024
X7.613Y-2.0768
X7.6539Y-2.3067
X7.6638Y-4.1614
X7.6654Y-3.5846
X7.6756Y-4.5508
X7.6945Y-1.8831
X7.7134Y-2.5984
X7.7201Y-2.4598
X7.7362Y-3.7555
X7.7933Y-4.1614
X7.825Y-5.145
X7.835Y-4.805
X7.8445Y-4.2677
X7.8823Y-3.8791
X7.9248Y-4.4598
X7.925Y-4.805
X7.9307Y-2.5594
X7.955Y-4.91
X7.965Y-5.055
X7.9697Y-2.1969
X7.9783Y-3.9626
X8.0079Y-3.1299
X8.0772Y-4.4898
X8.0843Y-2.3264
X8.0976Y-2.8055
X8.1043Y-3.9134
X8.1106Y-2.9717
X8.1173Y-4.2224
X8.137Y-2.6614
X8.189Y-3.2579
X8.198Y-4.361
X8.2201Y-2.3264
X8.2406Y-4.2433
X8.25Y-3.9154
X8.2598Y-2.6614
X8.3299Y-2.4921
X8.3543Y-2.7402
T2
X5.5913Y-5.0484
X5.7313Y-4.5433
X5.7882Y-5.0484
X5.9104Y-5.0482
X5.9281Y-4.5433
X6.0472Y-3.0719
X6.0472Y-3.1506
X6.0728Y-2.7657
X6.1073Y-5.0482
X6.1516Y-2.7657
X6.2323Y-4.3337
X6.2323Y-4.4124
X6.3415Y-4.7805
X6.4203Y-4.7805
X6.5443Y-2.0571
X6.5443Y-2.2815
X6.623Y-2.0571
X6.623Y-2.2815
X6.625Y-2.815
X6.625Y-2.8937
X6.7854Y-2.4858
X6.7854Y-2.5646
X7.0787Y-4.6531
X7.0787Y-4.7319
X7.348Y-3.502
X7.348Y-3.5807
X7.5827Y-1.8366
X7.5827Y-1.9154
X7.7717Y-4.3612
X7.7717Y-4.44
X7.8071Y-1.8366
X7.8071Y-1.9154
X7.8465Y-3.2579
X7.8465Y-3.3366
X7.8602Y-3.7598
X7.939Y-3.7598
X8.0217Y-4.3248
X8.0217Y-4.4232
X8.0469Y-2.6004
X8.0469Y-2.6791
X8.2972Y-4.3248
X8.2972Y-4.4232
T4
X4.9606Y-1.6929
X4.9606Y-5.1969
X4.9626Y-4.5295
X4.9626Y-4.8295
X4.9701Y-2.0228
X4.9701Y-2.3228
X5.0606Y-1.6929
X5.0606Y-5.1969
X5.0626Y-4.5295
X5.0626Y-4.8295
X5.0701Y-2.0228
X5.0701Y-2.3228
X5.1606Y-1.6929
X5.1606Y-5.1969
X5.1626Y-4.5295
X5.1626Y-4.8295
X5.1701Y-2.0228
X5.1701Y-2.3228
X5.2606Y-1.6929
X5.2606Y-5.1969
X5.2626Y-4.5295
X5.2626Y-4.8295
X5.2701Y-2.0228
X5.2701Y-2.3228
X5.3606Y-1.6929
X5.3606Y-5.1969
X5.3626Y-4.5295
X5.3626Y-4.8295
X5.3701Y-2.0228
X5.3701Y-2.3228
X5.4606Y-1.6929
X5.4606Y-5.1969
X5.5606Y-1.6929
X5.5606Y-5.1969
X5.6606Y-1.6929
X5.6606Y-5.1969
X5.7606Y-1.6929
X5.7606Y-5.1969
X5.8606Y-1.6929
X5.8606Y-5.1969
X6.0809Y-2.1476
X6.0809Y-2.2476
X6.0809Y-2.3476
X6.0809Y-2.4476
X6.0809Y-2.5476
X6.3809Y-2.1476
X6.3809Y-2.2476
X6.3809Y-2.3476
X6.3809Y-2.4476
X6.3809Y-2.5476
X6.6142Y-5.1969
X6.7142Y-5.1969
X6.8142Y-5.1969
X6.9142Y-5.1969
X6.9992Y-2.0315
X6.9992Y-2.1315
X6.9992Y-2.2315
X6.9992Y-2.3315
X6.9992Y-2.4315
X7.0142Y-5.1969
X7.0866Y-1.6929
X7.1142Y-5.1969
X7.1866Y-1.6929
X7.2142Y-5.1969
X7.2866Y-1.6929
X7.2992Y-2.0315
X7.2992Y-2.1315
X7.2992Y-2.2315
X7.2992Y-2.3315
X7.2992Y-2.4315
X7.3142Y-5.1969
X7.3866Y-1.6929
X7.4142Y-5.1969
X7.4866Y-1.6929
X7.5142Y-5.1969
X7.5866Y-1.6929
X7.6866Y-1.6929
X7.7866Y-1.6929
X7.8866Y-1.6929
X7.9866Y-1.6929
T5
X4.6419Y-2.8191
X4.6419Y-3.3702
X4.6419Y-3.9313
X4.8619Y-2.8191
X4.8619Y-3.3702
X4.8619Y-3.9313
X5.0495Y-3.9329
X5.0553Y-2.8191
X5.0553Y-3.3702
X5.2695Y-3.9329
X5.2753Y-2.8191
X5.2753Y-3.3702
X5.625Y-4.7549
X5.9669Y-2.94
X6.025Y-4.7549
X6.3669Y-2.94
X6.5794Y-5.0738
X6.8331Y-2.9803
X6.9794Y-5.0738
X7.2142Y-4.6634
X7.2142Y-5.0634
X7.4331Y-2.9803
X7.437Y-3.6945
X7.437Y-4.0945
X7.5808Y-2.7853
X7.5856Y-4.2024
X7.5856Y-4.6024
X7.8636Y-2.5025
T6
X4.7581Y-1.9654
X4.7581Y-2.0654
X4.7581Y-2.1654
X4.7581Y-2.2654
X4.7581Y-2.3654
T8
X4.685Y-1.7323
X4.685Y-5.1673
X8.3071Y-1.7323
X8.3071Y-5.1575
T3
X8.1142Y-3.061G85X8.1417Y-3.061
G05
X8.1142Y-3.1594G85X8.1417Y-3.1594
G05
X8.1142Y-3.3563G85X8.1417Y-3.3563
G05
X8.1142Y-3.4547G85X8.1417Y-3.4547
G05
X8.1161Y-4.5669G85X8.1437Y-4.5669
G05
X8.1161Y-4.6654G85X8.1437Y-4.6654
G05
X8.1161Y-4.8622G85X8.1437Y-4.8622
G05
X8.1161Y-4.9606G85X8.1437Y-4.9606
G05
X8.3248Y-3.2717G85X8.3248Y-3.2441
G05
X8.3268Y-4.7776G85X8.3268Y-4.75
G05
T7
X8.128Y-3.2579G85X8.128Y-3.2579
G05
X8.1299Y-4.7638G85X8.1299Y-4.7638
G05
X8.3248Y-3.061G85X8.3248Y-3.061
G05
X8.3248Y-3.4547G85X8.3248Y-3.4547
G05
X8.3268Y-4.5669G85X8.3268Y-4.5669
G05
X8.3268Y-4.9606G85X8.3268Y-4.9606
G05
X8.4232Y-3.061G85X8.4232Y-3.061
G05
X8.4232Y-3.4547G85X8.4232Y-3.4547
G05
X8.4252Y-4.5669G85X8.4252Y-4.5669
G05
X8.4252Y-4.9606G85X8.4252Y-4.9606
G05
T0
M30
