M48
;DRILL file {KiCad 4.0.7} date 05/14/20 07:05:39
;FORMAT={-:-/ absolute / inch / decimal}
FMAT,2
INCH,TZ
T1C0.016
T2C0.031
T3C0.032
T4C0.035
T5C0.039
T6C0.039
T7C0.043
T8C0.047
T9C0.126
%
G90
G05
M72
T1
X4.5787Y-3.6358
X4.5787Y-3.7913
X4.58Y-4.23
X4.58Y-4.4
X4.58Y-4.55
X4.58Y-4.69
X4.58Y-4.86
X4.58Y-5.01
X4.6575Y-3.4724
X4.67Y-4.86
X4.69Y-4.29
X4.6929Y-3.2106
X4.71Y-4.58
X4.7106Y-4.6791
X4.7185Y-3.6732
X4.7913Y-3.8484
X4.8583Y-3.6732
X4.86Y-4.42
X4.86Y-4.55
X4.8681Y-3.0197
X4.8681Y-3.2106
X4.939Y-4.6476
X4.94Y-4.25
X4.9449Y-1.8465
X4.95Y-4.39
X4.9508Y-2.6732
X4.9508Y-2.8406
X4.9626Y-3.8386
X4.97Y-4.73
X5.0177Y-2.2343
X5.0197Y-2.1083
X5.02Y-4.02
X5.03Y-4.33
X5.0433Y-4.6366
X5.0453Y-3.2106
X5.09Y-4.96
X5.135Y-3.975
X5.14Y-3.87
X5.15Y-4.73
X5.17Y-5.05
X5.19Y-4.17
X5.21Y-4.6
X5.2205Y-1.8465
X5.28Y-4.96
X5.31Y-3.495
X5.315Y-3.675
X5.315Y-3.83
X5.32Y-4.62
X5.32Y-4.75
X5.325Y-2.6
X5.3366Y-1.8465
X5.34Y-3.03
X5.34Y-3.21
X5.36Y-4.33
X5.37Y-3.97
X5.37Y-4.18
X5.38Y-2.715
X5.38Y-2.87
X5.445Y-3.72
X5.445Y-3.865
X5.45Y-2.655
X5.45Y-2.79
X5.45Y-2.955
X5.45Y-3.135
X5.45Y-3.35
X5.45Y-3.535
X5.45Y-4.24
X5.46Y-4.82
X5.46Y-4.96
X5.46Y-5.11
X5.47Y-4.62
X5.47Y-4.75
X5.5217Y-4.2579
X5.54Y-4.43
X5.5689Y-4.2008
X5.5957Y-2.2331
X5.6Y-4.82
X5.61Y-3.155
X5.61Y-3.62
X5.61Y-5.11
X5.62Y-2.43
X5.62Y-2.6
X5.62Y-2.74
X5.62Y-2.89
X5.635Y-3.3
X5.635Y-3.77
X5.67Y-4.115
X5.67Y-4.305
X5.67Y-4.58
X5.72Y-2.33
X5.735Y-2.02
X5.74Y-2.155
X5.77Y-3.86
X5.77Y-4.
X5.79Y-4.68
X5.79Y-4.82
X5.81Y-5.11
X5.825Y-4.37
X5.8583Y-2.5945
X5.86Y-4.19
X5.8606Y-1.7949
X5.87Y-3.65
X5.895Y-3.38
X5.9Y-3.075
X5.9Y-3.24
X5.9Y-4.68
X5.91Y-4.55
X5.94Y-3.86
X5.98Y-2.97
X5.985Y-4.33
X5.9862Y-1.8839
X6.Y-4.82
X6.Y-5.08
X6.0015Y-5.2115
X6.04Y-4.51
X6.09Y-3.86
X6.09Y-4.195
X6.1201Y-1.6772
X6.1663Y-3.6585
X6.19Y-2.105
X6.19Y-2.22
X6.19Y-2.335
X6.195Y-2.01
X6.205Y-2.955
X6.2185Y-4.5385
X6.2244Y-2.628
X6.2255Y-4.8975
X6.2255Y-5.081
X6.226Y-5.2115
X6.24Y-3.82
X6.252Y-3.2008
X6.252Y-3.5315
X6.2677Y-1.6791
X6.275Y-2.335
X6.28Y-2.01
X6.28Y-2.11
X6.28Y-2.22
X6.2933Y-3.2933
X6.2953Y-3.378
X6.2992Y-3.4567
X6.3031Y-3.5118
X6.32Y-3.085
X6.345Y-5.082
X6.3475Y-4.897
X6.37Y-2.6345
X6.375Y-5.21
X6.376Y-3.378
X6.39Y-3.82
X6.4Y-4.539
X6.41Y-3.94
X6.41Y-4.05
X6.435Y-1.6791
X6.44Y-3.03
X6.4646Y-4.689
X6.4705Y-3.2933
X6.4803Y-3.4567
X6.4941Y-3.6004
X6.5Y-4.14
X6.505Y-5.085
X6.5059Y-3.9823
X6.5354Y-3.4596
X6.545Y-2.5
X6.55Y-2.355
X6.557Y-2.1625
X6.5768Y-3.6004
X6.5984Y-4.5354
X6.625Y-2.62
X6.628Y-3.9724
X6.628Y-4.3543
X6.6358Y-1.6811
X6.6358Y-1.8465
X6.6496Y-4.3976
X6.6516Y-3.4508
X6.6516Y-4.189
X6.6969Y-4.6831
X6.71Y-4.81
X6.7165Y-4.3976
X6.7175Y-2.62
X6.719Y-2.163
X6.72Y-2.315
X6.724Y-4.5524
X6.73Y-2.945
X6.7695Y-4.314
X6.7697Y-4.4488
X6.77Y-4.19
X6.77Y-4.69
X6.7923Y-3.2037
X6.8Y-5.05
X6.813Y-2.4725
X6.8307Y-4.622
X6.8602Y-4.3543
X6.878Y-3.4429
X6.88Y-2.31
X6.8819Y-2.1634
X6.8878Y-4.189
X6.8937Y-4.622
X6.8957Y-4.5323
X6.9094Y-3.9705
X6.9197Y-3.6185
X6.9252Y-4.7441
X6.9449Y-3.2047
X6.945Y-2.83
X6.9764Y-4.6831
X6.9803Y-2.5866
X6.986Y-2.483
X6.99Y-4.82
X6.99Y-4.96
X7.0197Y-3.063
X7.0207Y-3.6378
X7.0228Y-4.324
X7.0315Y-3.9843
X7.065Y-4.075
X7.095Y-4.96
X7.0984Y-2.8524
X7.1004Y-2.7835
X7.11Y-4.685
X7.1339Y-2.3169
X7.1417Y-4.3185
X7.1476Y-1.9882
X7.1535Y-2.1634
X7.1535Y-3.3543
X7.1555Y-3.5787
X7.18Y-4.82
X7.1811Y-3.6949
X7.1858Y-2.7835
X7.22Y-4.025
X7.2283Y-2.3563
X7.2339Y-4.2063
X7.255Y-4.385
X7.2559Y-3.063
X7.2559Y-3.3268
X7.285Y-5.035
X7.2874Y-2.5906
X7.305Y-4.55
X7.3059Y-2.7835
X7.345Y-3.25
X7.3461Y-3.6083
X7.3465Y-3.4567
X7.375Y-4.93
X7.4232Y-3.0787
X7.4488Y-3.4567
X7.4744Y-2.1772
X7.51Y-4.93
X7.545Y-3.25
X7.5846Y-3.4567
X7.6654Y-3.5846
X7.6673Y-4.5551
X7.7933Y-4.1614
X7.7992Y-2.4783
X7.7992Y-2.6535
X7.825Y-5.145
X7.8287Y-2.065
X7.835Y-4.805
X7.8445Y-4.2677
X7.9248Y-4.4598
X7.925Y-4.805
X7.955Y-4.91
X7.9567Y-2.5866
X7.965Y-5.055
X7.9783Y-3.9626
X8.0079Y-1.9055
X8.0079Y-3.1299
X8.0512Y-2.3799
X8.0772Y-4.4898
X8.1043Y-2.9705
X8.1043Y-3.9134
X8.1173Y-4.2224
X8.189Y-2.3799
X8.189Y-3.2579
X8.198Y-4.361
X8.2028Y-2.0768
X8.2406Y-4.2433
X8.25Y-3.9154
X8.2598Y-2.6614
X8.3543Y-2.7402
X8.3583Y-2.3051
X8.3583Y-2.5
T2
X5.59Y-4.96
X5.6949Y-3.0256
X5.7736Y-3.0256
X5.7869Y-4.96
X5.9031Y-4.96
X6.0118Y-4.0335
X6.0906Y-4.0335
X6.1Y-4.3931
X6.1Y-4.59
X6.1Y-4.96
X6.2421Y-4.687
X6.3209Y-4.687
X6.5713Y-3.07
X6.65Y-3.07
X6.68Y-2.4213
X6.68Y-2.5
X7.1024Y-4.4055
X7.1024Y-4.4843
X7.2677Y-3.8307
X7.2677Y-3.9094
X7.5827Y-1.8366
X7.5827Y-1.9154
X7.7717Y-4.3612
X7.7717Y-4.44
X7.8071Y-1.8366
X7.8071Y-1.9154
X7.8465Y-3.2579
X7.8465Y-3.3366
X7.8602Y-3.7598
X7.939Y-3.7598
X8.0217Y-4.3248
X8.0217Y-4.4232
X8.0748Y-2.5906
X8.0748Y-2.6693
X8.1122Y-2.1752
X8.1122Y-2.2539
X8.2972Y-4.3248
X8.2972Y-4.4232
T3
X6.31Y-2.72
X6.41Y-2.72
X6.51Y-2.72
T5
X4.9606Y-1.6929
X4.9606Y-5.1969
X4.9626Y-4.5295
X4.9626Y-4.8295
X4.9701Y-2.0228
X4.9701Y-2.3228
X5.0606Y-1.6929
X5.0606Y-5.1969
X5.0626Y-4.5295
X5.0626Y-4.8295
X5.0701Y-2.0228
X5.0701Y-2.3228
X5.1606Y-1.6929
X5.1606Y-5.1969
X5.1626Y-4.5295
X5.1626Y-4.8295
X5.1701Y-2.0228
X5.1701Y-2.3228
X5.2606Y-1.6929
X5.2606Y-5.1969
X5.2626Y-4.5295
X5.2626Y-4.8295
X5.2701Y-2.0228
X5.2701Y-2.3228
X5.3606Y-1.6929
X5.3606Y-5.1969
X5.3626Y-4.5295
X5.3626Y-4.8295
X5.3701Y-2.0228
X5.3701Y-2.3228
X5.4606Y-1.6929
X5.4606Y-5.1969
X5.5606Y-1.6929
X5.5606Y-5.1969
X5.6606Y-1.6929
X5.6606Y-5.1969
X5.7606Y-1.6929
X5.7606Y-5.1969
X5.8606Y-1.6929
X5.8606Y-5.1969
X6.0898Y-1.9134
X6.0898Y-2.0134
X6.0898Y-2.1134
X6.0898Y-2.2134
X6.0898Y-2.3134
X6.3898Y-1.9134
X6.3898Y-2.0134
X6.3898Y-2.1134
X6.3898Y-2.2134
X6.3898Y-2.3134
X6.6142Y-5.1969
X6.7142Y-5.1969
X6.8142Y-5.1969
X6.9142Y-5.1969
X6.9992Y-1.9134
X6.9992Y-2.0134
X6.9992Y-2.1134
X6.9992Y-2.2134
X6.9992Y-2.3134
X7.0142Y-5.1969
X7.0866Y-1.6929
X7.1142Y-5.1969
X7.1866Y-1.6929
X7.2142Y-5.1969
X7.2866Y-1.6929
X7.2992Y-1.9134
X7.2992Y-2.0134
X7.2992Y-2.1134
X7.2992Y-2.2134
X7.2992Y-2.3134
X7.3142Y-5.1969
X7.3866Y-1.6929
X7.4142Y-5.1969
X7.4866Y-1.6929
X7.5142Y-5.1969
X7.5866Y-1.6929
X7.6866Y-1.6929
X7.7866Y-1.6929
X7.8866Y-1.6929
X7.9866Y-1.6929
T6
X4.6419Y-2.8191
X4.6419Y-3.3702
X4.6419Y-3.9313
X4.8619Y-2.8191
X4.8619Y-3.3702
X4.8619Y-3.9313
X5.0495Y-3.9329
X5.0553Y-2.8191
X5.0553Y-3.3702
X5.2695Y-3.9329
X5.2753Y-2.8191
X5.2753Y-3.3702
X5.6031Y-4.68
X5.7323Y-3.2969
X5.7323Y-3.6969
X6.0031Y-4.68
X6.4544Y-4.9508
X6.837Y-2.7894
X6.8544Y-4.9508
X7.1811Y-4.6296
X7.1811Y-5.0296
X7.437Y-3.6945
X7.437Y-4.0945
X7.437Y-2.7894
X7.5532Y-3.0255
X7.5856Y-4.2024
X7.5856Y-4.6024
X7.8361Y-2.7427
T7
X4.7581Y-1.9654
X4.7581Y-2.0654
X4.7581Y-2.1654
X4.7581Y-2.2654
X4.7581Y-2.3654
T9
X4.685Y-1.7323
X4.685Y-5.1673
X8.3071Y-1.7323
X8.3071Y-5.1575
T4
X8.1142Y-3.061G85X8.1417Y-3.061
G05
X8.1142Y-3.1594G85X8.1417Y-3.1594
G05
X8.1142Y-3.3563G85X8.1417Y-3.3563
G05
X8.1142Y-3.4547G85X8.1417Y-3.4547
G05
X8.1161Y-4.5669G85X8.1437Y-4.5669
G05
X8.1161Y-4.6654G85X8.1437Y-4.6654
G05
X8.1161Y-4.8622G85X8.1437Y-4.8622
G05
X8.1161Y-4.9606G85X8.1437Y-4.9606
G05
X8.3248Y-3.2717G85X8.3248Y-3.2441
G05
X8.3268Y-4.7776G85X8.3268Y-4.75
G05
T8
X8.128Y-3.2579G85X8.128Y-3.2579
G05
X8.1299Y-4.7638G85X8.1299Y-4.7638
G05
X8.3248Y-3.061G85X8.3248Y-3.061
G05
X8.3248Y-3.4547G85X8.3248Y-3.4547
G05
X8.3268Y-4.5669G85X8.3268Y-4.5669
G05
X8.3268Y-4.9606G85X8.3268Y-4.9606
G05
X8.4232Y-3.061G85X8.4232Y-3.061
G05
X8.4232Y-3.4547G85X8.4232Y-3.4547
G05
X8.4252Y-4.5669G85X8.4252Y-4.5669
G05
X8.4252Y-4.9606G85X8.4252Y-4.9606
G05
T0
M30
