G04 #@! TF.FileFunction,Soldermask,Top*
%FSLAX46Y46*%
G04 Gerber Fmt 4.6, Leading zero omitted, Abs format (unit mm)*
G04 Created by KiCad (PCBNEW 4.0.7) date 06/06/20 12:49:26*
%MOMM*%
%LPD*%
G01*
G04 APERTURE LIST*
%ADD10C,0.100000*%
%ADD11R,0.800000X0.900000*%
%ADD12R,1.700000X1.700000*%
%ADD13O,1.700000X1.700000*%
%ADD14R,0.450000X1.500000*%
%ADD15C,1.998980*%
%ADD16C,1.600000*%
%ADD17R,1.100000X2.150000*%
%ADD18C,5.600000*%
%ADD19R,1.700000X1.400000*%
%ADD20R,1.600000X1.600000*%
%ADD21R,1.400000X1.700000*%
%ADD22R,1.550000X0.600000*%
%ADD23R,1.500000X0.600000*%
%ADD24O,1.600000X2.500000*%
%ADD25O,1.200000X1.200000*%
%ADD26O,2.500000X1.600000*%
%ADD27R,0.750000X1.200000*%
%ADD28R,1.200000X0.750000*%
%ADD29R,0.900000X1.200000*%
%ADD30R,0.900000X0.800000*%
%ADD31R,1.200000X0.900000*%
%ADD32R,0.850000X1.000000*%
%ADD33C,1.800000*%
%ADD34R,5.000000X3.960000*%
%ADD35O,2.300000X1.600000*%
%ADD36O,1.600000X2.300000*%
%ADD37R,1.300000X1.700000*%
%ADD38R,1.700000X1.300000*%
%ADD39R,0.650000X0.400000*%
%ADD40R,0.450000X1.450000*%
%ADD41R,0.650000X1.060000*%
%ADD42R,0.600000X1.500000*%
G04 APERTURE END LIST*
D10*
D11*
X206130000Y-62520000D03*
X208030000Y-62520000D03*
X207080000Y-60520000D03*
D12*
X126000000Y-43000000D03*
D13*
X128540000Y-43000000D03*
X131080000Y-43000000D03*
X133620000Y-43000000D03*
X136160000Y-43000000D03*
X138700000Y-43000000D03*
X141240000Y-43000000D03*
X143780000Y-43000000D03*
X146320000Y-43000000D03*
X148860000Y-43000000D03*
D14*
X163475000Y-98475000D03*
X164125000Y-98475000D03*
X164775000Y-98475000D03*
X165425000Y-98475000D03*
X166075000Y-98475000D03*
X166725000Y-98475000D03*
X167375000Y-98475000D03*
X168025000Y-98475000D03*
X168025000Y-92575000D03*
X167375000Y-92575000D03*
X166725000Y-92575000D03*
X166075000Y-92575000D03*
X165425000Y-92575000D03*
X164775000Y-92575000D03*
X164125000Y-92575000D03*
X163475000Y-92575000D03*
D15*
X177276260Y-128875000D03*
X167116260Y-128875000D03*
D16*
X145575000Y-115400000D03*
X150575000Y-115400000D03*
D12*
X168000000Y-132000000D03*
D13*
X170540000Y-132000000D03*
X173080000Y-132000000D03*
X175620000Y-132000000D03*
X178160000Y-132000000D03*
X180700000Y-132000000D03*
X183240000Y-132000000D03*
X185780000Y-132000000D03*
X188320000Y-132000000D03*
X190860000Y-132000000D03*
D17*
X178130000Y-102665000D03*
X178130000Y-105615000D03*
D18*
X211000000Y-44000000D03*
X119000000Y-44000000D03*
X119000000Y-131250000D03*
X211000000Y-131000000D03*
D19*
X146320000Y-48000000D03*
X146320000Y-45600000D03*
D20*
X200500000Y-67640000D03*
X200500000Y-69940000D03*
X201500000Y-79500000D03*
X201500000Y-77200000D03*
X199300000Y-82750000D03*
D16*
X199300000Y-84750000D03*
D20*
X212200000Y-71050000D03*
X212200000Y-73350000D03*
X211090000Y-61490000D03*
X211090000Y-59190000D03*
D19*
X197000000Y-79550000D03*
X197000000Y-77150000D03*
X196600000Y-71000000D03*
X196600000Y-73400000D03*
D21*
X199700000Y-73350000D03*
X202100000Y-73350000D03*
X204700000Y-73350000D03*
X207100000Y-73350000D03*
D19*
X209500000Y-73350000D03*
X209500000Y-70950000D03*
X211580000Y-67360000D03*
X211580000Y-64960000D03*
X203410000Y-62720000D03*
X203410000Y-60320000D03*
D21*
X197500000Y-60300000D03*
X199900000Y-60300000D03*
D19*
X208200000Y-65200000D03*
X208200000Y-67600000D03*
X176630000Y-111870000D03*
X176630000Y-109470000D03*
X154800000Y-116175000D03*
X154800000Y-113775000D03*
D22*
X205850000Y-104505000D03*
X205850000Y-103235000D03*
X205850000Y-101965000D03*
X205850000Y-100695000D03*
X200450000Y-100695000D03*
X200450000Y-101965000D03*
X200450000Y-103235000D03*
X200450000Y-104505000D03*
D23*
X178575000Y-71890000D03*
X178575000Y-73160000D03*
X178575000Y-74430000D03*
X178575000Y-75700000D03*
X178575000Y-76970000D03*
X178575000Y-78240000D03*
X178575000Y-79510000D03*
X183975000Y-79510000D03*
X183975000Y-78240000D03*
X183975000Y-76970000D03*
X183975000Y-75700000D03*
X183975000Y-74430000D03*
X183975000Y-73160000D03*
X183975000Y-71890000D03*
D17*
X165940000Y-102665000D03*
X165940000Y-105615000D03*
X170370000Y-102665000D03*
X170370000Y-105615000D03*
X173500000Y-102665000D03*
X173500000Y-105615000D03*
D20*
X180430000Y-103990000D03*
X180430000Y-106290000D03*
X163440000Y-103990000D03*
X163440000Y-106290000D03*
X168075000Y-104000000D03*
X168075000Y-106300000D03*
X175800000Y-103990000D03*
X175800000Y-106290000D03*
X210750000Y-109850000D03*
D16*
X210750000Y-112350000D03*
D20*
X203750000Y-109850000D03*
D16*
X203750000Y-112350000D03*
D24*
X211500000Y-121000000D03*
D25*
X206500000Y-121000000D03*
D26*
X206500000Y-116000000D03*
X206500000Y-118500000D03*
X206500000Y-123500000D03*
X206500000Y-126000000D03*
D25*
X211500000Y-116000000D03*
X211500000Y-126000000D03*
X214000000Y-116000000D03*
X214000000Y-126000000D03*
D24*
X211450000Y-82750000D03*
D25*
X206450000Y-82750000D03*
D26*
X206450000Y-77750000D03*
X206450000Y-80250000D03*
X206450000Y-85250000D03*
X206450000Y-87750000D03*
D25*
X211450000Y-77750000D03*
X211450000Y-87750000D03*
X213950000Y-77750000D03*
X213950000Y-87750000D03*
D12*
X180000000Y-43000000D03*
D13*
X182540000Y-43000000D03*
X185080000Y-43000000D03*
X187620000Y-43000000D03*
X190160000Y-43000000D03*
X192700000Y-43000000D03*
X195240000Y-43000000D03*
X197780000Y-43000000D03*
X200320000Y-43000000D03*
X202860000Y-43000000D03*
D12*
X126000000Y-132000000D03*
D13*
X128540000Y-132000000D03*
X131080000Y-132000000D03*
X133620000Y-132000000D03*
X136160000Y-132000000D03*
X138700000Y-132000000D03*
X141240000Y-132000000D03*
X143780000Y-132000000D03*
X146320000Y-132000000D03*
X148860000Y-132000000D03*
D20*
X179790000Y-113850000D03*
X182090000Y-113850000D03*
D21*
X158375000Y-117025000D03*
X160775000Y-117025000D03*
D20*
X161850000Y-112100000D03*
X161850000Y-109800000D03*
D15*
X188900000Y-104001260D03*
X188900000Y-93841260D03*
D19*
X170370000Y-111870000D03*
X170370000Y-109470000D03*
X167240000Y-111870000D03*
X167240000Y-109470000D03*
X173500000Y-111870000D03*
X173500000Y-109470000D03*
X164625000Y-116750000D03*
X164625000Y-114350000D03*
X154800000Y-111075000D03*
X154800000Y-108675000D03*
D14*
X174975000Y-98475000D03*
X175625000Y-98475000D03*
X176275000Y-98475000D03*
X176925000Y-98475000D03*
X177575000Y-98475000D03*
X178225000Y-98475000D03*
X178875000Y-98475000D03*
X179525000Y-98475000D03*
X179525000Y-92575000D03*
X178875000Y-92575000D03*
X178225000Y-92575000D03*
X177575000Y-92575000D03*
X176925000Y-92575000D03*
X176275000Y-92575000D03*
X175625000Y-92575000D03*
X174975000Y-92575000D03*
D27*
X188775000Y-71250000D03*
X188775000Y-73150000D03*
X173775000Y-71250000D03*
X173775000Y-73150000D03*
D28*
X184800000Y-66000000D03*
X186700000Y-66000000D03*
X177750000Y-66000000D03*
X175850000Y-66000000D03*
D29*
X182275000Y-86300000D03*
X182275000Y-84100000D03*
X180275000Y-86300000D03*
X180275000Y-84100000D03*
X186275000Y-81000000D03*
X186275000Y-78800000D03*
X176275000Y-81000000D03*
X176275000Y-78800000D03*
X190975000Y-76800000D03*
X190975000Y-74600000D03*
X171575000Y-76800000D03*
X171575000Y-74600000D03*
X178275000Y-86300000D03*
X178275000Y-84100000D03*
X184275000Y-86300000D03*
X184275000Y-84100000D03*
X186775000Y-71100000D03*
X186775000Y-73300000D03*
X175775000Y-71100000D03*
X175775000Y-73300000D03*
X182475000Y-69300000D03*
X182475000Y-67100000D03*
X180075000Y-69300000D03*
X180075000Y-67100000D03*
D15*
X192675000Y-116901260D03*
X192675000Y-106741260D03*
X199736425Y-63563575D03*
X192552220Y-70747780D03*
X183240000Y-128611260D03*
X183240000Y-118451260D03*
D20*
X172550000Y-46900000D03*
X174850000Y-46900000D03*
D30*
X149430000Y-51710000D03*
X149430000Y-53610000D03*
X151430000Y-52660000D03*
D15*
X161719260Y-74676000D03*
X151559260Y-74676000D03*
D28*
X160850000Y-69930000D03*
X162750000Y-69930000D03*
X169250000Y-89675000D03*
X171150000Y-89675000D03*
X179325000Y-89300000D03*
X181225000Y-89300000D03*
D31*
X164700000Y-89675000D03*
X166900000Y-89675000D03*
D11*
X168950000Y-86225000D03*
X167050000Y-86225000D03*
X168000000Y-88225000D03*
D20*
X138450000Y-47100000D03*
X138450000Y-49400000D03*
D15*
X133992000Y-71604000D03*
X128404000Y-71604000D03*
X123492000Y-71604000D03*
X117904000Y-71604000D03*
X133992000Y-85604000D03*
X128404000Y-85604000D03*
X123492000Y-85604000D03*
X117904000Y-85604000D03*
X128258000Y-99896000D03*
X133846000Y-99896000D03*
X123492000Y-99854000D03*
X117904000Y-99854000D03*
D11*
X125100000Y-127000000D03*
X127000000Y-127000000D03*
X126050000Y-125000000D03*
D21*
X125200000Y-129150000D03*
X127600000Y-129150000D03*
D20*
X130100000Y-63750000D03*
X132400000Y-63750000D03*
X138450000Y-63700000D03*
X136150000Y-63700000D03*
X127150000Y-63700000D03*
X124850000Y-63700000D03*
X119600000Y-63750000D03*
X121900000Y-63750000D03*
X130100000Y-95250000D03*
X132400000Y-95250000D03*
X126200000Y-92950000D03*
X126200000Y-95250000D03*
X138650000Y-104000000D03*
X136350000Y-104000000D03*
X119600000Y-95250000D03*
X121900000Y-95250000D03*
X132150000Y-108250000D03*
X129850000Y-108250000D03*
X125476000Y-104782000D03*
X125476000Y-102482000D03*
X119600000Y-110900000D03*
X121900000Y-110900000D03*
X121900000Y-113900000D03*
X119600000Y-113900000D03*
D32*
X122825000Y-67500000D03*
X118675000Y-67500000D03*
X122825000Y-91500000D03*
X118675000Y-91500000D03*
X133325000Y-67500000D03*
X129175000Y-67500000D03*
X133325000Y-91500000D03*
X129175000Y-91500000D03*
X128925000Y-104000000D03*
X133075000Y-104000000D03*
X122825000Y-107300000D03*
X118675000Y-107300000D03*
D33*
X120857000Y-49920000D03*
X120857000Y-60080000D03*
D34*
X119350000Y-58620000D03*
X119350000Y-51380000D03*
D33*
X120857000Y-52460000D03*
X120857000Y-57540000D03*
X120857000Y-55000000D03*
D20*
X204390000Y-68050000D03*
D16*
X204390000Y-66050000D03*
D20*
X158300000Y-112075000D03*
D16*
X158300000Y-110075000D03*
D20*
X179800000Y-118190000D03*
D16*
X179800000Y-120190000D03*
D20*
X209450000Y-102200000D03*
X209450000Y-104500000D03*
X196350000Y-100800000D03*
X196350000Y-103100000D03*
X197400000Y-110775000D03*
D16*
X197400000Y-112775000D03*
D20*
X201650000Y-95500000D03*
D16*
X199650000Y-95500000D03*
D20*
X194280000Y-112280000D03*
X194280000Y-109980000D03*
X209500000Y-93750000D03*
X207200000Y-93750000D03*
D35*
X185400000Y-51600000D03*
X185400000Y-54140000D03*
X185400000Y-56680000D03*
X185400000Y-59220000D03*
X185400000Y-61760000D03*
X177780000Y-61760000D03*
X177780000Y-59220000D03*
X177780000Y-56680000D03*
X177780000Y-54140000D03*
X177780000Y-51600000D03*
D21*
X201700000Y-91250000D03*
X199300000Y-91250000D03*
X195300000Y-97500000D03*
X192900000Y-97500000D03*
D36*
X136400000Y-59000000D03*
X133860000Y-59000000D03*
X131320000Y-59000000D03*
X128780000Y-59000000D03*
X126240000Y-59000000D03*
X126240000Y-51380000D03*
X128780000Y-51380000D03*
X131320000Y-51380000D03*
X133860000Y-51380000D03*
X136400000Y-51380000D03*
D35*
X162075000Y-54550000D03*
X162075000Y-57090000D03*
X162075000Y-59630000D03*
X162075000Y-62170000D03*
X162075000Y-64710000D03*
X154455000Y-64710000D03*
X154455000Y-62170000D03*
X154455000Y-59630000D03*
X154455000Y-57090000D03*
X154455000Y-54550000D03*
D36*
X126050000Y-115050000D03*
X128590000Y-115050000D03*
X131130000Y-115050000D03*
X133670000Y-115050000D03*
X136210000Y-115050000D03*
X136210000Y-122670000D03*
X133670000Y-122670000D03*
X131130000Y-122670000D03*
X128590000Y-122670000D03*
X126050000Y-122670000D03*
D20*
X152270000Y-45170000D03*
X152270000Y-47470000D03*
D37*
X183350000Y-48600000D03*
X179850000Y-48600000D03*
X159670000Y-45430000D03*
X156170000Y-45430000D03*
D27*
X146320000Y-51710000D03*
X146320000Y-53610000D03*
D11*
X193750000Y-124510000D03*
X195650000Y-124510000D03*
X194700000Y-122510000D03*
X194690000Y-120810000D03*
X196590000Y-120810000D03*
X195640000Y-118810000D03*
D20*
X193610000Y-126740000D03*
X195910000Y-126740000D03*
D10*
G36*
X186788198Y-113996827D02*
X185656827Y-115128198D01*
X184525456Y-113996827D01*
X185656827Y-112865456D01*
X186788198Y-113996827D01*
X186788198Y-113996827D01*
G37*
G36*
X188414544Y-115623173D02*
X187283173Y-116754544D01*
X186151802Y-115623173D01*
X187283173Y-114491802D01*
X188414544Y-115623173D01*
X188414544Y-115623173D01*
G37*
D20*
X201275000Y-119175000D03*
X198975000Y-119175000D03*
D19*
X199020000Y-124510000D03*
X199020000Y-126910000D03*
D21*
X189700000Y-122510000D03*
X187300000Y-122510000D03*
X198950000Y-116450000D03*
X201350000Y-116450000D03*
X190120000Y-128070000D03*
X187720000Y-128070000D03*
X201875000Y-106741260D03*
X204275000Y-106741260D03*
D19*
X211900000Y-104550000D03*
X211900000Y-102150000D03*
X194000000Y-103100000D03*
X194000000Y-100700000D03*
D21*
X207150000Y-96700000D03*
X209550000Y-96700000D03*
D10*
G36*
X163328198Y-126896827D02*
X162196827Y-128028198D01*
X161065456Y-126896827D01*
X162196827Y-125765456D01*
X163328198Y-126896827D01*
X163328198Y-126896827D01*
G37*
G36*
X164954544Y-128523173D02*
X163823173Y-129654544D01*
X162691802Y-128523173D01*
X163823173Y-127391802D01*
X164954544Y-128523173D01*
X164954544Y-128523173D01*
G37*
D20*
X163075000Y-121425000D03*
D16*
X161075000Y-121425000D03*
D20*
X117856000Y-76828000D03*
X117856000Y-79128000D03*
X128400000Y-76650000D03*
X128400000Y-78950000D03*
X122700000Y-123400000D03*
X120400000Y-123400000D03*
D38*
X140400000Y-56950000D03*
X140400000Y-53450000D03*
X122000000Y-117150000D03*
X122000000Y-120650000D03*
D20*
X186640000Y-90950000D03*
D16*
X186640000Y-88950000D03*
D20*
X171950000Y-82775000D03*
X171950000Y-85075000D03*
X163475000Y-82775000D03*
X163475000Y-85075000D03*
X192600000Y-48650000D03*
D16*
X192600000Y-46650000D03*
D20*
X198300000Y-48650000D03*
D16*
X198300000Y-46650000D03*
D15*
X188800620Y-75700000D03*
X173560620Y-75700000D03*
D20*
X168275000Y-73500000D03*
D16*
X168275000Y-71500000D03*
D20*
X172350000Y-65140000D03*
D16*
X172350000Y-63140000D03*
D28*
X123150000Y-127250000D03*
X121250000Y-127250000D03*
D20*
X145740000Y-101900000D03*
X145740000Y-99600000D03*
X154250000Y-70250000D03*
D16*
X156250000Y-70250000D03*
D19*
X145000000Y-64150000D03*
X145000000Y-66550000D03*
D16*
X142020000Y-128230000D03*
X147020000Y-128230000D03*
D15*
X142873740Y-120775000D03*
X153033740Y-120775000D03*
D16*
X155125000Y-128225000D03*
X150125000Y-128225000D03*
D39*
X165825000Y-122775000D03*
X165825000Y-124075000D03*
X165825000Y-123425000D03*
X167725000Y-124075000D03*
X167725000Y-122775000D03*
D40*
X169275000Y-126900000D03*
X169925000Y-126900000D03*
X170575000Y-126900000D03*
X171225000Y-126900000D03*
X171875000Y-126900000D03*
X172525000Y-126900000D03*
X173175000Y-126900000D03*
X173825000Y-126900000D03*
X174475000Y-126900000D03*
X175125000Y-126900000D03*
X175125000Y-121000000D03*
X174475000Y-121000000D03*
X173825000Y-121000000D03*
X173175000Y-121000000D03*
X172525000Y-121000000D03*
X171875000Y-121000000D03*
X171225000Y-121000000D03*
X170575000Y-121000000D03*
X169925000Y-121000000D03*
X169275000Y-121000000D03*
D41*
X169700000Y-114450000D03*
X168750000Y-114450000D03*
X167800000Y-114450000D03*
X167800000Y-116650000D03*
X169700000Y-116650000D03*
X168750000Y-116650000D03*
X176000000Y-114450000D03*
X175050000Y-114450000D03*
X174100000Y-114450000D03*
X174100000Y-116650000D03*
X176000000Y-116650000D03*
X175050000Y-116650000D03*
D29*
X153527500Y-104937500D03*
X153527500Y-102737500D03*
X155137500Y-104937500D03*
X155137500Y-102737500D03*
X151927500Y-104937500D03*
X151927500Y-102737500D03*
X153527500Y-84957500D03*
X153527500Y-87157500D03*
X155137500Y-84977500D03*
X155137500Y-87177500D03*
X151927500Y-84947500D03*
X151927500Y-87147500D03*
X157477500Y-100737500D03*
X157477500Y-102937500D03*
X157477500Y-88937500D03*
X157477500Y-86737500D03*
D31*
X159437500Y-100737500D03*
X161637500Y-100737500D03*
X159437500Y-102937500D03*
X161637500Y-102937500D03*
D29*
X148837500Y-101937500D03*
X148837500Y-99737500D03*
D31*
X159437500Y-88937500D03*
X161637500Y-88937500D03*
X159437500Y-86737500D03*
X161637500Y-86737500D03*
D29*
X148837500Y-87737500D03*
X148837500Y-89937500D03*
D42*
X157647500Y-92137500D03*
X156377500Y-92137500D03*
X155107500Y-92137500D03*
X153837500Y-92137500D03*
X152567500Y-92137500D03*
X151297500Y-92137500D03*
X150027500Y-92137500D03*
X150027500Y-97537500D03*
X151297500Y-97537500D03*
X152567500Y-97537500D03*
X153837500Y-97537500D03*
X155107500Y-97537500D03*
X156377500Y-97537500D03*
X157647500Y-97537500D03*
D21*
X153530000Y-82310000D03*
X151130000Y-82310000D03*
D19*
X159730000Y-82300000D03*
X159730000Y-79900000D03*
D20*
X153600000Y-80025000D03*
D16*
X153600000Y-78025000D03*
D20*
X166225000Y-52250000D03*
D16*
X168225000Y-52250000D03*
D20*
X166225000Y-57950000D03*
D16*
X168225000Y-57950000D03*
D21*
X171025000Y-57950000D03*
X173425000Y-57950000D03*
X171025000Y-52250000D03*
X173425000Y-52250000D03*
D20*
X156650000Y-78350000D03*
X156650000Y-80650000D03*
X168275000Y-79100000D03*
X168275000Y-76800000D03*
D21*
X169960000Y-68230000D03*
X172360000Y-68230000D03*
D19*
X166110000Y-65140000D03*
X166110000Y-62740000D03*
D20*
X169100000Y-62840000D03*
X169100000Y-65140000D03*
X147070000Y-106040000D03*
X149370000Y-106040000D03*
D19*
X201620000Y-46650000D03*
X201620000Y-49050000D03*
X188950000Y-46640000D03*
X188950000Y-49040000D03*
M02*
